# Blender v2.81 (sub 16) OBJ File: ''
# www.blender.org
mtllib alienSPAWN.mtl
o Cube.002
v 0.000000 0.821734 0.342730
v 0.677660 0.821734 0.342730
v 0.475708 1.002959 -0.154877
v 0.000000 1.002959 -0.154877
v 0.719208 0.184057 -0.940087
v 0.719208 -0.321077 -0.644029
v 0.000000 -0.321077 -0.644029
v 0.000000 0.184057 -0.940087
v 0.677660 0.492433 -1.001152
v 0.942676 0.414229 -0.759722
v 0.970333 0.163968 -0.713477
v 0.508644 0.923743 -0.478159
v 0.475708 0.844526 -0.801442
v 0.000000 0.844526 -0.801442
v 0.000000 0.923743 -0.478159
v 0.808239 0.828546 -0.118841
v 0.767035 0.764258 -0.363661
v 0.741624 -0.008279 0.370625
v 0.741624 0.459502 0.096459
v 0.546527 0.352091 -0.465599
v 0.546527 -0.078339 -0.297092
v 0.808239 0.699970 -0.608482
v 0.481786 -0.931153 0.550055
v 0.441145 -0.867864 0.808336
v 0.000000 -0.867864 0.808336
v 0.000000 -0.931153 0.550055
v 0.524380 -0.394830 0.738560
v 0.000000 -0.394830 0.738560
v 0.524380 -0.701787 -0.213608
v 0.441145 -0.994441 0.291773
v 0.000000 -0.994441 0.291773
v 0.000000 -0.701787 -0.213608
v 0.000000 0.492433 -1.001152
v 0.553830 -0.644240 -0.278670
v 0.970333 -0.245973 -0.489273
v 0.860244 -0.508236 -0.212589
v 0.652230 0.695481 -0.162493
v 0.529382 0.479504 -0.569258
v 0.000000 -0.995664 -0.294906
v 0.563068 -0.995664 -0.294906
v 0.620056 -0.677268 -0.315185
v 0.587731 -0.740433 -0.243773
v 0.595929 -0.995664 -0.367504
v 0.000000 -0.995664 -0.367504
v 0.780463 -0.995664 -0.775184
v 0.000000 -0.995664 -0.775184
v 0.792211 -0.430382 0.197219
v 0.840640 -0.305826 0.557754
v 0.785232 -0.689717 0.610596
v 0.749157 -0.741078 0.415000
v 0.892990 0.319320 -0.121860
v 0.970333 0.474674 0.469756
v 0.970333 0.064734 0.693959
v 0.892988 -0.090620 0.102342
v 0.871498 0.547851 -0.250864
v 1.043492 -0.306821 0.692823
v 0.634049 -0.427886 0.947004
v 0.840640 -0.554938 -0.163318
v 0.785232 -0.792440 0.219405
v 0.719210 0.566914 0.622359
v 0.942676 0.681473 0.257994
v 0.719208 0.061780 0.918415
v 1.020338 -0.539165 -0.330517
v 0.945319 -0.460149 0.171010
v 0.807445 -0.379025 0.182876
v 0.553830 -0.325810 0.765746
v 0.860244 -0.249814 0.578343
v 0.000000 -0.434607 0.229244
v 0.588474 -0.434607 0.229244
v 0.482180 -0.421194 -0.047550
v 0.000000 -0.421194 -0.047550
v 0.988657 -0.598521 -0.261356
v 0.680128 -0.319893 0.989542
v 0.000000 -0.319893 0.989542
v 0.000000 -0.427886 0.947004
v 0.969155 -0.379791 0.148572
v 1.074167 -0.219179 0.725038
v 0.000000 -0.325810 0.765746
v 0.000000 0.352091 -0.465599
v 0.000000 -0.078339 -0.297092
v 0.000000 0.479504 -0.569258
v 0.000000 0.753237 -0.162493
v -0.475708 1.002959 -0.154877
v -0.677660 0.821734 0.342730
v -0.719208 0.184057 -0.940087
v -0.719208 -0.321077 -0.644029
v -0.970333 0.163968 -0.713477
v -0.942676 0.414229 -0.759722
v -0.677660 0.492433 -1.001152
v -0.508644 0.923743 -0.478159
v -0.475708 0.844526 -0.801442
v -0.767035 0.764258 -0.363661
v -0.808239 0.828546 -0.118841
v -0.741624 -0.008279 0.370625
v -0.546527 -0.078339 -0.297092
v -0.546527 0.352091 -0.465599
v -0.741624 0.459502 0.096459
v -0.808239 0.699970 -0.608482
v -0.481786 -0.931153 0.550055
v -0.441145 -0.867864 0.808336
v -0.524380 -0.394830 0.738560
v -0.524380 -0.701787 -0.213608
v -0.441145 -0.994441 0.291773
v -0.553830 -0.644240 -0.278670
v -0.860244 -0.508236 -0.212589
v -0.970333 -0.245973 -0.489273
v -0.529382 0.479504 -0.569258
v -0.652230 0.695481 -0.162493
v -0.563068 -0.995664 -0.294906
v -0.587731 -0.740433 -0.243773
v -0.620056 -0.677268 -0.315185
v -0.595929 -0.995664 -0.367504
v -0.780463 -0.995664 -0.775184
v -0.792211 -0.430382 0.197219
v -0.749157 -0.741078 0.415000
v -0.785232 -0.689717 0.610596
v -0.840640 -0.305826 0.557754
v -0.892990 0.319320 -0.121860
v -0.892988 -0.090620 0.102342
v -0.970333 0.064734 0.693959
v -0.970333 0.474674 0.469756
v -0.871498 0.547851 -0.250864
v -0.634049 -0.427886 0.947004
v -1.043492 -0.306821 0.692823
v -0.785232 -0.792440 0.219405
v -0.840640 -0.554938 -0.163318
v -0.942676 0.681473 0.257994
v -0.719210 0.566914 0.622359
v -0.719208 0.061780 0.918415
v -1.020338 -0.539165 -0.330517
v -0.945319 -0.460149 0.171010
v -0.807445 -0.379025 0.182876
v -0.860244 -0.249814 0.578343
v -0.553830 -0.325810 0.765746
v -0.482180 -0.421194 -0.047550
v -0.588474 -0.434607 0.229244
v -0.988657 -0.598521 -0.261356
v -0.680128 -0.319893 0.989542
v -0.969155 -0.379791 0.148572
v -1.074167 -0.219179 0.725038
vn 0.0000 0.9396 0.3422
vn 0.0000 -0.5056 -0.8627
vn 0.6641 -0.0609 -0.7451
vn 0.0000 0.9713 -0.2380
vn 0.5215 0.8255 -0.2161
vn -0.9496 0.1386 0.2813
vn 0.6034 0.6044 -0.5201
vn 0.0000 -0.9713 0.2380
vn 0.0000 0.1459 0.9893
vn 0.0000 -0.8654 -0.5011
vn 0.0000 0.4934 -0.8698
vn 0.0000 -0.1943 -0.9810
vn 0.4700 -0.7433 -0.4761
vn -0.9523 0.0245 0.3043
vn 0.0000 -0.2666 0.9638
vn -0.5928 -0.4510 -0.6672
vn 0.5812 -0.4022 -0.7074
vn 0.0000 -1.0000 0.0000
vn 0.9104 0.0044 0.4138
vn 0.9103 0.0048 0.4140
vn 0.9104 0.0038 0.4137
vn 0.0000 0.1908 -0.9816
vn 0.9801 -0.1753 -0.0935
vn 0.9916 -0.0620 -0.1134
vn 0.9035 0.4281 0.0223
vn 0.9858 0.1368 0.0971
vn 0.1434 -0.9635 -0.2260
vn 0.4133 -0.8088 -0.4183
vn 0.5391 0.6504 0.5351
vn 0.5754 -0.7943 0.1949
vn 0.4702 0.8704 0.1459
vn 0.5951 0.3972 0.6986
vn -0.2354 0.7264 -0.6457
vn 0.4824 0.0471 0.8747
vn 0.5842 -0.7855 0.2043
vn -0.1789 -0.9295 0.3225
vn 0.9908 0.0060 -0.1353
vn 0.9244 0.3117 -0.2197
vn 0.9916 0.0620 0.1134
vn 0.9881 -0.0097 0.1532
vn 0.5287 0.8247 -0.2006
vn 0.9576 -0.2176 0.1890
vn 0.5646 -0.4785 0.6725
vn 0.9512 -0.3065 -0.0371
vn 0.9105 0.0031 0.4134
vn 0.0000 0.9988 0.0484
vn 0.2156 -0.6209 0.7537
vn 0.0000 -0.3665 0.9304
vn 0.9489 -0.3027 -0.0890
vn 0.5656 -0.4785 0.6716
vn 0.9489 -0.2574 0.1825
vn 0.2504 -0.7834 -0.5688
vn -0.0577 0.9460 -0.3190
vn -0.1939 0.9776 0.0817
vn 0.0000 -0.9877 -0.1566
vn -0.1062 -0.9474 0.3019
vn 0.0000 0.9997 -0.0264
vn 0.0098 0.9578 -0.2872
vn 0.0000 0.3645 0.9312
vn 0.0000 0.6311 0.7757
vn 0.0000 0.5885 0.8085
vn -0.9147 0.2972 0.2740
vn -0.0417 -0.8532 0.5199
vn -0.0426 -0.9808 0.1901
vn -0.9106 0.3974 -0.1135
vn 0.0000 0.9801 -0.1987
vn -0.9772 -0.2063 0.0496
vn -0.9990 -0.0223 -0.0380
vn -0.6641 -0.0609 -0.7451
vn -0.5215 0.8255 -0.2161
vn 0.9496 0.1386 0.2813
vn -0.6034 0.6044 -0.5201
vn -0.4700 -0.7433 -0.4761
vn 0.9523 0.0245 0.3043
vn 0.5928 -0.4510 -0.6672
vn -0.5812 -0.4022 -0.7074
vn -0.9104 0.0044 0.4138
vn -0.9104 0.0038 0.4137
vn -0.9103 0.0048 0.4140
vn -0.9801 -0.1753 -0.0935
vn -0.9916 -0.0620 -0.1134
vn -0.9035 0.4281 0.0223
vn -0.9858 0.1368 0.0971
vn -0.1434 -0.9635 -0.2260
vn -0.4133 -0.8088 -0.4183
vn -0.5391 0.6504 0.5351
vn -0.5754 -0.7943 0.1949
vn -0.4702 0.8704 0.1459
vn -0.5951 0.3972 0.6986
vn 0.2354 0.7264 -0.6457
vn -0.4824 0.0471 0.8747
vn -0.5842 -0.7855 0.2043
vn 0.1789 -0.9295 0.3225
vn -0.9908 0.0060 -0.1353
vn -0.9244 0.3117 -0.2197
vn -0.9916 0.0620 0.1134
vn -0.9881 -0.0097 0.1532
vn -0.5287 0.8247 -0.2006
vn -0.9576 -0.2176 0.1890
vn -0.5646 -0.4785 0.6725
vn -0.9512 -0.3065 -0.0371
vn -0.9105 0.0031 0.4134
vn -0.2156 -0.6209 0.7537
vn -0.9489 -0.3027 -0.0890
vn -0.5656 -0.4785 0.6716
vn -0.9489 -0.2574 0.1825
vn -0.2504 -0.7834 -0.5688
vn 0.0577 0.9460 -0.3190
vn 0.1939 0.9776 0.0817
vn 0.1062 -0.9474 0.3019
vn -0.0098 0.9578 -0.2872
vn 0.9147 0.2972 0.2740
vn 0.0417 -0.8532 0.5199
vn 0.0426 -0.9808 0.1901
vn 0.9106 0.3974 -0.1135
vn 0.9772 -0.2063 0.0496
vn 0.9990 -0.0223 -0.0380
usemtl Material.001
s 1
f 1//1 2//1 3//1 4//1
f 5//2 6//2 7//2 8//2
f 5//3 9//3 10//3 11//3
f 12//4 13//4 14//4 15//4
f 12//5 3//5 16//5 17//5
f 18//6 19//6 20//6 21//6
f 9//7 13//7 22//7 10//7
f 23//8 24//8 25//8 26//8
f 27//9 28//9 25//9 24//9
f 29//10 30//10 31//10 32//10
f 9//11 33//11 14//11 13//11
f 5//12 8//12 33//12 9//12
f 34//13 6//13 35//13 36//13
f 19//14 37//14 38//14 20//14
f 29//15 32//15 39//15 40//15
f 29//16 34//16 41//16 42//16
f 6//17 5//17 11//17 35//17
f 43//18 40//18 39//18 44//18
f 34//19 29//20 40//20 43//21
f 7//22 6//22 45//22 46//22
f 47//23 48//23 49//23 50//23
f 51//24 52//24 53//24 54//24
f 55//25 10//25 22//25 17//25
f 51//26 11//26 10//26 55//26
f 27//27 48//27 56//27 57//27
f 30//28 29//28 58//28 59//28
f 2//29 60//29 52//29 61//29
f 23//30 30//30 59//30 50//30
f 3//31 2//31 61//31 16//31
f 60//32 62//32 53//32 52//32
f 34//33 36//33 63//33 41//33
f 27//34 24//34 49//34 48//34
f 24//35 23//35 50//35 49//35
f 48//36 47//36 64//36 56//36
f 52//37 51//37 55//37 61//37
f 61//38 55//38 17//38 16//38
f 11//39 51//39 54//39 35//39
f 58//40 47//40 50//40 59//40
f 30//8 23//8 26//8 31//8
f 13//41 12//41 17//41 22//41
f 3//4 12//4 15//4 4//4
f 35//42 54//42 65//42 36//42
f 62//43 66//43 67//43 53//43
f 54//44 53//44 67//44 65//44
f 6//45 34//19 43//21 45//45
f 45//18 43//18 44//18 46//18
f 68//46 69//46 70//46 71//46
f 58//47 29//47 42//47 72//47
f 73//48 74//48 75//48 57//48
f 76//49 77//49 56//49 64//49
f 73//50 57//50 56//50 77//50
f 63//51 76//51 64//51 72//51
f 42//52 41//52 63//52 72//52
f 36//53 65//53 76//53 63//53
f 67//54 66//54 73//54 77//54
f 28//55 27//55 57//55 75//55
f 47//56 58//56 72//56 64//56
f 66//57 78//57 74//57 73//57
f 65//58 67//58 77//58 76//58
f 20//59 79//59 80//59 21//59
f 79//60 20//60 38//60 81//60
f 21//61 80//61 71//61 70//61
f 69//62 18//62 21//62 70//62
f 37//63 82//63 81//63 38//63
f 2//64 1//64 82//64 37//64
f 66//65 62//65 18//65 69//65
f 78//66 66//66 69//66 68//66
f 60//67 2//67 37//67 19//67
f 62//68 60//68 19//68 18//68
f 1//1 4//1 83//1 84//1
f 85//2 8//2 7//2 86//2
f 85//69 87//69 88//69 89//69
f 90//4 15//4 14//4 91//4
f 90//70 92//70 93//70 83//70
f 94//71 95//71 96//71 97//71
f 89//72 88//72 98//72 91//72
f 99//8 26//8 25//8 100//8
f 101//9 100//9 25//9 28//9
f 102//10 32//10 31//10 103//10
f 89//11 91//11 14//11 33//11
f 85//12 89//12 33//12 8//12
f 104//73 105//73 106//73 86//73
f 97//74 96//74 107//74 108//74
f 102//15 109//15 39//15 32//15
f 102//75 110//75 111//75 104//75
f 86//76 106//76 87//76 85//76
f 112//18 44//18 39//18 109//18
f 104//77 112//78 109//79 102//79
f 7//22 46//22 113//22 86//22
f 114//80 115//80 116//80 117//80
f 118//81 119//81 120//81 121//81
f 122//82 92//82 98//82 88//82
f 118//83 122//83 88//83 87//83
f 101//84 123//84 124//84 117//84
f 103//85 125//85 126//85 102//85
f 84//86 127//86 121//86 128//86
f 99//87 115//87 125//87 103//87
f 83//88 93//88 127//88 84//88
f 128//89 121//89 120//89 129//89
f 104//90 111//90 130//90 105//90
f 101//91 117//91 116//91 100//91
f 100//92 116//92 115//92 99//92
f 117//93 124//93 131//93 114//93
f 121//94 127//94 122//94 118//94
f 127//95 93//95 92//95 122//95
f 87//96 106//96 119//96 118//96
f 126//97 125//97 115//97 114//97
f 103//8 31//8 26//8 99//8
f 91//98 98//98 92//98 90//98
f 83//4 4//4 15//4 90//4
f 106//99 105//99 132//99 119//99
f 129//100 120//100 133//100 134//100
f 119//101 132//101 133//101 120//101
f 86//102 113//102 112//78 104//77
f 113//18 46//18 44//18 112//18
f 68//46 71//46 135//46 136//46
f 126//103 137//103 110//103 102//103
f 138//48 123//48 75//48 74//48
f 139//104 131//104 124//104 140//104
f 138//105 140//105 124//105 123//105
f 130//106 137//106 131//106 139//106
f 110//107 137//107 130//107 111//107
f 105//108 130//108 139//108 132//108
f 133//109 140//109 138//109 134//109
f 28//55 75//55 123//55 101//55
f 114//110 131//110 137//110 126//110
f 134//57 138//57 74//57 78//57
f 132//111 139//111 140//111 133//111
f 96//59 95//59 80//59 79//59
f 79//60 81//60 107//60 96//60
f 95//61 135//61 71//61 80//61
f 136//112 135//112 95//112 94//112
f 108//113 107//113 81//113 82//113
f 84//114 108//114 82//114 1//114
f 134//115 136//115 94//115 129//115
f 78//66 68//66 136//66 134//66
f 128//116 97//116 108//116 84//116
f 129//117 94//117 97//117 128//117
