# Blender v2.78 (sub 0) OBJ File: ''
# www.blender.org
mtllib alienSPAWN.mtl
o Cube
v 0.435671 0.223140 -0.633120
v 0.267230 -0.874812 0.108955
v 0.435672 0.579831 0.308100
v 0.267230 -0.756886 0.420133
v 0.435671 0.109221 0.486445
v 0.435671 -0.247470 -0.454774
v 0.356477 -0.353240 0.071287
v 0.288167 0.838469 -0.549600
v 0.288167 0.986073 -0.160108
v 0.410503 0.510440 -0.669906
v 0.410503 0.817235 0.139651
v 0.317651 -0.602160 -0.195488
v 0.317651 -0.316182 0.378100
v 0.472777 -0.875951 -0.533782
v 0.341087 -0.875951 -0.244462
v 0.587794 0.204424 -0.496610
v 0.475666 -0.686617 0.065360
v 0.587794 0.493895 0.216172
v 0.475666 -0.590914 0.301014
v 0.587794 0.111973 0.351232
v 0.587794 -0.177499 -0.361549
v 0.489603 0.703793 -0.433361
v 0.489603 0.823581 -0.138400
v 0.571040 0.437581 -0.524468
v 0.571040 0.686560 0.088606
v 0.509230 -0.465347 -0.165193
v 0.509230 -0.233261 0.269182
v 0.308119 0.912271 -0.354854
v 0.291849 -0.815849 0.264544
v 0.540942 0.349159 -0.140219
v 0.464643 0.763687 -0.285880
v 0.453813 -0.638765 0.183187
v 0.540941 -0.032763 -0.005159
v 0.527923 0.562070 -0.217931
v 0.479894 -0.349304 0.051995
v 0.335491 -0.548546 -0.234681
v 0.335491 -0.251879 0.394477
v 0.360993 -0.875951 -0.288195
v 0.521106 -0.421837 -0.194874
v 0.521106 -0.181077 0.281585
v 0.489122 -0.301457 0.043355
v 0.356027 -0.638164 -0.213659
v 0.384085 -0.346978 0.503667
v 0.598894 -0.505951 -0.224251
v 0.632111 -0.234188 0.350548
v 0.572641 -0.377037 0.036207
v 0.375608 -0.579316 -0.256678
v 0.411998 -0.246366 0.529292
v 0.618085 -0.450652 -0.265914
v 0.650693 -0.152536 0.369954
v 0.587080 -0.302171 0.022690
v 0.331067 0.379690 -0.347288
v 0.331067 -0.021322 -0.245779
v 0.320681 0.498395 -0.409732
v 0.292088 -0.340744 -0.095454
v 0.395098 0.699610 -0.164696
v 0.449250 0.479760 -0.008703
v 0.449250 0.043950 0.156455
v -0.435671 0.223140 -0.633120
v -0.267230 -0.874812 0.108955
v 0.000000 -0.247470 -0.454774
v 0.000000 -0.353240 0.071287
v -0.435672 0.579831 0.308100
v -0.267230 -0.756886 0.420133
v -0.435671 0.109221 0.486445
v -0.435671 -0.247470 -0.454774
v 0.000000 0.223140 -0.633120
v 0.000000 -0.874812 0.108955
v -0.356477 -0.353240 0.071287
v 0.000000 -0.756886 0.420133
v -0.288167 0.838469 -0.549600
v -0.288167 0.986073 -0.160108
v 0.000000 0.838469 -0.549600
v 0.000000 0.986073 -0.160108
v 0.000000 0.817235 0.139651
v -0.410503 0.510440 -0.669906
v -0.410503 0.817235 0.139651
v 0.000000 0.510440 -0.669906
v -0.317651 -0.602160 -0.195488
v 0.000000 -0.602160 -0.195488
v -0.317651 -0.316182 0.378100
v 0.000000 -0.316182 0.378100
v 0.000000 -0.875951 -0.533782
v -0.472777 -0.875951 -0.533782
v -0.341087 -0.875951 -0.244462
v 0.000000 -0.875951 -0.244462
v -0.587794 0.204424 -0.496610
v -0.475666 -0.686617 0.065360
v -0.587794 0.493895 0.216172
v -0.475666 -0.590914 0.301014
v -0.587794 0.111973 0.351232
v -0.587794 -0.177499 -0.361549
v -0.489603 0.703793 -0.433361
v -0.489603 0.823581 -0.138400
v -0.571040 0.437581 -0.524468
v -0.571040 0.686560 0.088606
v -0.509230 -0.465347 -0.165193
v -0.509230 -0.233261 0.269182
v -0.308119 0.912271 -0.354854
v -0.291849 -0.815849 0.264544
v 0.000000 -0.815849 0.264544
v 0.000000 0.912271 -0.354854
v -0.540942 0.349159 -0.140219
v -0.464643 0.763687 -0.285880
v -0.453813 -0.638765 0.183187
v -0.540941 -0.032763 -0.005159
v -0.527923 0.562070 -0.217931
v -0.479894 -0.349304 0.051995
v -0.335491 -0.548546 -0.234681
v -0.335491 -0.251879 0.394477
v 0.000000 -0.251879 0.394477
v 0.000000 -0.875951 -0.288195
v -0.360993 -0.875951 -0.288195
v -0.521106 -0.421837 -0.194874
v -0.521106 -0.181077 0.281585
v -0.489122 -0.301457 0.043355
v -0.356027 -0.638164 -0.213659
v -0.384085 -0.346978 0.503667
v 0.000000 -0.346978 0.503667
v -0.598894 -0.505951 -0.224251
v -0.632111 -0.234188 0.350548
v -0.572641 -0.377037 0.036207
v -0.375608 -0.579316 -0.256678
v -0.411998 -0.246366 0.529292
v 0.000000 -0.246366 0.529292
v -0.618085 -0.450652 -0.265914
v -0.650693 -0.152536 0.369954
v -0.587080 -0.302171 0.022690
v 0.000000 -0.021322 -0.245779
v -0.331067 0.379690 -0.347288
v -0.331067 -0.021322 -0.245779
v 0.000000 0.379690 -0.347288
v 0.000000 0.498395 -0.409732
v -0.320681 0.498395 -0.409732
v -0.292088 -0.340744 -0.095454
v 0.000000 -0.340744 -0.095454
v 0.000000 0.753419 -0.164696
v -0.395098 0.699610 -0.164696
v -0.449250 0.479760 -0.008703
v -0.449250 0.043950 0.156455
vn -0.0000 0.8713 0.4908
vn 0.0000 -0.3544 -0.9351
vn 0.6628 -0.0395 -0.7478
vn 0.0000 0.9351 -0.3544
vn 0.6692 0.6888 -0.2789
vn -0.9544 0.0906 0.2843
vn 0.6780 0.4416 -0.5877
vn 0.0000 -0.9351 0.3544
vn 0.0000 0.0949 0.9955
vn -0.0000 -0.7449 -0.6671
vn 0.0000 0.3443 -0.9388
vn 0.0000 -0.1270 -0.9919
vn 0.5684 -0.5845 -0.5790
vn -0.9519 0.0159 0.3059
vn 0.0000 -0.1761 0.9844
vn -0.6292 -0.3112 -0.7122
vn 0.6085 -0.2738 -0.7448
vn 0.0000 -1.0000 -0.0000
vn 0.9094 0.0031 0.4159
vn 0.0000 0.1247 -0.9922
vn 0.9888 -0.1150 -0.0948
vn 0.9926 -0.0404 -0.1141
vn 0.9554 0.2944 0.0237
vn 0.9911 0.0894 0.0982
vn 0.2104 -0.9190 -0.3334
vn 0.5231 -0.6656 -0.5324
vn 0.6188 0.4854 0.6177
vn 0.7214 -0.6475 0.2457
vn 0.6268 0.7543 0.1955
vn 0.6223 0.2701 0.7347
vn -0.2813 0.5645 -0.7760
vn 0.4806 0.0305 0.8764
vn 0.7278 -0.6362 0.2559
vn -0.2525 -0.8526 0.4575
vn 0.9907 0.0039 -0.1360
vn 0.9512 0.2085 -0.2273
vn 0.9926 0.0404 0.1141
vn 0.9880 -0.0063 0.1540
vn 0.6782 0.6878 -0.2588
vn 0.9707 -0.1434 0.1927
vn 0.6043 -0.3330 0.7239
vn 0.9780 -0.2049 -0.0383
vn 0.9097 0.0020 0.4153
vn 0.0000 0.9972 0.0747
vn 0.2435 -0.4560 0.8560
vn -0.0000 -0.2468 0.9691
vn 0.9750 -0.2022 -0.0920
vn 0.6054 -0.3330 0.7229
vn 0.9674 -0.1706 0.1871
vn 0.3108 -0.6321 -0.7098
vn -0.0829 0.8836 -0.4608
vn -0.2896 0.9492 0.1226
vn -0.0000 -0.9712 -0.2382
vn -0.1529 -0.8865 0.4368
vn 0.0000 0.9992 -0.0409
vn 0.0142 0.9071 -0.4207
vn -0.0000 0.2454 0.9694
vn 0.0000 0.4656 0.8850
vn 0.0000 0.4258 0.9048
vn -0.9385 0.1983 0.2827
vn -0.0546 -0.7267 0.6848
vn -0.0639 -0.9559 0.2866
vn -0.9551 0.2710 -0.1197
vn 0.0000 0.9542 -0.2993
vn -0.9894 -0.1358 0.0505
vn -0.9992 -0.0145 -0.0382
vn -0.6628 -0.0395 -0.7478
vn -0.6692 0.6888 -0.2789
vn 0.9544 0.0906 0.2843
vn -0.6780 0.4416 -0.5877
vn -0.5684 -0.5845 -0.5790
vn 0.9519 0.0159 0.3059
vn 0.6292 -0.3112 -0.7122
vn -0.6085 -0.2738 -0.7448
vn -0.9094 0.0031 0.4159
vn -0.9888 -0.1150 -0.0948
vn -0.9926 -0.0404 -0.1141
vn -0.9554 0.2944 0.0237
vn -0.9911 0.0894 0.0982
vn -0.2104 -0.9190 -0.3334
vn -0.5231 -0.6656 -0.5324
vn -0.6188 0.4854 0.6177
vn -0.7214 -0.6475 0.2457
vn -0.6268 0.7543 0.1955
vn -0.6223 0.2701 0.7347
vn 0.2813 0.5645 -0.7760
vn -0.4806 0.0305 0.8764
vn -0.7278 -0.6362 0.2559
vn 0.2525 -0.8526 0.4575
vn -0.9907 0.0039 -0.1360
vn -0.9512 0.2085 -0.2273
vn -0.9926 0.0404 0.1141
vn -0.9880 -0.0063 0.1540
vn -0.6782 0.6878 -0.2588
vn -0.9707 -0.1434 0.1927
vn -0.6043 -0.3330 0.7239
vn -0.9780 -0.2049 -0.0383
vn -0.9097 0.0020 0.4153
vn -0.2435 -0.4560 0.8560
vn -0.9750 -0.2022 -0.0920
vn -0.6054 -0.3330 0.7229
vn -0.9674 -0.1706 0.1871
vn -0.3108 -0.6321 -0.7098
vn 0.0829 0.8836 -0.4608
vn 0.2896 0.9492 0.1226
vn 0.1529 -0.8865 0.4368
vn -0.0142 0.9071 -0.4207
vn 0.9385 0.1983 0.2827
vn 0.0546 -0.7267 0.6848
vn 0.0639 -0.9559 0.2866
vn 0.9551 0.2710 -0.1197
vn 0.9894 -0.1358 0.0505
vn 0.9992 -0.0145 -0.0382
usemtl Material
s off
f 75//1 11//1 9//1 74//1
f 1//2 6//2 61//2 67//2
f 1//3 10//3 24//3 16//3
f 28//4 8//4 73//4 102//4
f 28//5 9//5 23//5 31//5
f 58//6 57//6 52//6 53//6
f 10//7 8//7 22//7 24//7
f 29//8 4//8 70//8 101//8
f 13//9 82//9 70//9 4//9
f 12//10 2//10 68//10 80//10
f 10//11 78//11 73//11 8//11
f 1//12 67//12 78//12 10//12
f 36//13 6//13 21//13 39//13
f 57//14 56//14 54//14 52//14
f 12//15 80//15 86//15 15//15
f 12//16 36//16 47//16 42//16
f 6//17 1//17 16//17 21//17
f 38//18 15//18 86//18 112//18
f 36//19 12//19 15//19 38//19
f 61//20 6//20 14//20 83//20
f 35//21 27//21 19//21 32//21
f 30//22 18//22 20//22 33//22
f 34//23 24//23 22//23 31//23
f 30//24 16//24 24//24 34//24
f 13//25 27//25 45//25 43//25
f 2//26 12//26 26//26 17//26
f 11//27 3//27 18//27 25//27
f 29//28 2//28 17//28 32//28
f 9//29 11//29 25//29 23//29
f 3//30 5//30 20//30 18//30
f 36//31 39//31 49//31 47//31
f 13//32 4//32 19//32 27//32
f 4//33 29//33 32//33 19//33
f 27//34 35//34 46//34 45//34
f 18//35 30//35 34//35 25//35
f 25//36 34//36 31//36 23//36
f 16//37 30//37 33//37 21//37
f 26//38 35//38 32//38 17//38
f 2//8 29//8 101//8 68//8
f 8//39 28//39 31//39 22//39
f 9//4 28//4 102//4 74//4
f 21//40 33//40 41//40 39//40
f 5//41 37//41 40//41 20//41
f 33//42 20//42 40//42 41//42
f 6//43 36//43 38//43 14//43
f 14//18 38//18 112//18 83//18
f 62//44 7//44 55//44 136//44
f 26//45 12//45 42//45 44//45
f 48//46 125//46 119//46 43//46
f 51//47 50//47 45//47 46//47
f 48//48 43//48 45//48 50//48
f 49//49 51//49 46//49 44//49
f 42//50 47//50 49//50 44//50
f 39//51 41//51 51//51 49//51
f 40//52 37//52 48//52 50//52
f 82//53 13//53 43//53 119//53
f 35//54 26//54 44//54 46//54
f 37//55 111//55 125//55 48//55
f 41//56 40//56 50//56 51//56
f 52//57 132//57 129//57 53//57
f 132//58 52//58 54//58 133//58
f 53//59 129//59 136//59 55//59
f 7//60 58//60 53//60 55//60
f 56//61 137//61 133//61 54//61
f 11//62 75//62 137//62 56//62
f 37//63 5//63 58//63 7//63
f 111//64 37//64 7//64 62//64
f 3//65 11//65 56//65 57//65
f 5//66 3//66 57//66 58//66
f 75//1 74//1 72//1 77//1
f 59//2 67//2 61//2 66//2
f 59//67 87//67 95//67 76//67
f 99//4 102//4 73//4 71//4
f 99//68 104//68 94//68 72//68
f 140//69 131//69 130//69 139//69
f 76//70 95//70 93//70 71//70
f 100//8 101//8 70//8 64//8
f 81//9 64//9 70//9 82//9
f 79//10 80//10 68//10 60//10
f 76//11 71//11 73//11 78//11
f 59//12 76//12 78//12 67//12
f 109//71 114//71 92//71 66//71
f 139//72 130//72 134//72 138//72
f 79//15 85//15 86//15 80//15
f 79//73 117//73 123//73 109//73
f 66//74 92//74 87//74 59//74
f 113//18 112//18 86//18 85//18
f 109//75 113//75 85//75 79//75
f 61//20 83//20 84//20 66//20
f 108//76 105//76 90//76 98//76
f 103//77 106//77 91//77 89//77
f 107//78 104//78 93//78 95//78
f 103//79 107//79 95//79 87//79
f 81//80 118//80 121//80 98//80
f 60//81 88//81 97//81 79//81
f 77//82 96//82 89//82 63//82
f 100//83 105//83 88//83 60//83
f 72//84 94//84 96//84 77//84
f 63//85 89//85 91//85 65//85
f 109//86 123//86 126//86 114//86
f 81//87 98//87 90//87 64//87
f 64//88 90//88 105//88 100//88
f 98//89 121//89 122//89 108//89
f 89//90 96//90 107//90 103//90
f 96//91 94//91 104//91 107//91
f 87//92 92//92 106//92 103//92
f 97//93 88//93 105//93 108//93
f 60//8 68//8 101//8 100//8
f 71//94 93//94 104//94 99//94
f 72//4 74//4 102//4 99//4
f 92//95 114//95 116//95 106//95
f 65//96 91//96 115//96 110//96
f 106//97 116//97 115//97 91//97
f 66//98 84//98 113//98 109//98
f 84//18 83//18 112//18 113//18
f 62//44 136//44 135//44 69//44
f 97//99 120//99 117//99 79//99
f 124//46 118//46 119//46 125//46
f 128//100 122//100 121//100 127//100
f 124//101 127//101 121//101 118//101
f 126//102 120//102 122//102 128//102
f 117//103 120//103 126//103 123//103
f 114//104 126//104 128//104 116//104
f 115//105 127//105 124//105 110//105
f 82//53 119//53 118//53 81//53
f 108//106 122//106 120//106 97//106
f 110//55 124//55 125//55 111//55
f 116//107 128//107 127//107 115//107
f 130//57 131//57 129//57 132//57
f 132//58 133//58 134//58 130//58
f 131//59 135//59 136//59 129//59
f 69//108 135//108 131//108 140//108
f 138//109 134//109 133//109 137//109
f 77//110 138//110 137//110 75//110
f 110//111 69//111 140//111 65//111
f 111//64 62//64 69//64 110//64
f 63//112 139//112 138//112 77//112
f 65//113 140//113 139//113 63//113
